<svg xmlns="http://www.w3.org/2000/svg" fill="currentColor" viewBox="0 0 24 24">
  <path fill-rule="evenodd" d="M2.25 6a3 3 0 0 1 3-3h13.5a3 3 0 0 1 3 3v12a3 3 0 0 1-3 3H5.25a3 3 0 0 1-3-3V6Zm18 3H3.75v9a1.5 1.5 0 0 0 1.5 1.5h13.5a1.5 1.5 0 0 0 1.5-1.5V9Zm-15-3.75A.75.75 0 0 0 4.5 6c0 .42.34.76.75.76A.75.75 0 0 0 6.02 6a.75.75 0 0 0-.75-.75h-.01Zm1.5.75a.75.75 0 0 1 .75-.75.75.75 0 0 1 .76.75.75.75 0 0 1-.75.76H7.5A.75.75 0 0 1 6.75 6Zm3-.75A.75.75 0 0 0 9 6c0 .42.34.76.75.76a.75.75 0 0 0 .76-.75V6a.75.75 0 0 0-.75-.75h-.01Z" clip-rule="evenodd"/>
</svg>