<svg xmlns="http://www.w3.org/2000/svg" width="18" height="24" viewBox="0 0 348 448">
  <path fill="currentColor" d="M348.25 303.75C342 323.5 332 344.5 317.5 366.25c-21.5 32.75-43 49-64.25 49-8.5 0-20-2.75-35-8-14.75-5.5-27.5-8-37.75-8-10 0-22 2.75-35.5 8.25-13.75 5.75-24.75 8.5-33 8.5-25.75 0-50.5-21.75-75.25-64.75C12.5 308.25 0 266.5 0 225.5c0-38.25 9.5-69.25 28.25-93.5 18.75-24 42.25-36 71-36 12.25 0 26.75 2.5 44.25 7.5 17.25 5 28.75 7.5 34.5 7.5 7.25 0 19.25-2.75 35.75-8.5 16.5-5.5 31-8.5 43.25-8.5 20 0 37.75 5.5 53.25 16.25 8.75 6 17.5 14.5 26 25-13 11-22.5 20.75-28.5 29.5-10.75 15.5-16.25 32.75-16.25 51.75 0 20.5 5.75 39.25 17.25 55.75s24.75 27 39.5 31.5zm-94-293.25c0 10.25-2.5 21.75-7.25 34-5 12.5-12.75 24-23.25 34.5-9 9-18 15-27 18-5.75 1.75-14.25 3.25-26 4.25.5-24.75 7-46.25 19.5-64.25s33.5-30.25 62.5-37c.5 2.25 1 4 1.25 5.5 0 1.75.25 3.25.25 5z"/>
</svg>